<mxfile host="app.diagrams.net" modified="2020-11-24T15:00:45.299Z" agent="5.0 (Windows NT 10.0; Win64; x64) AppleWebKit/537.36 (KHTML, like Gecko) Chrome/87.0.4280.66 Safari/537.36" etag="E1GzRvNY2C8NZLOQb7gp" version="13.10.0" type="github">
  <diagram name="Page-1" id="9f46799a-70d6-7492-0946-bef42562c5a5">
    <mxGraphModel dx="1673" dy="1717" grid="1" gridSize="10" guides="1" tooltips="1" connect="1" arrows="1" fold="1" page="1" pageScale="1" pageWidth="1100" pageHeight="850" background="#ffffff" math="0" shadow="0">
      <root>
        <mxCell id="0" />
        <mxCell id="1" parent="0" />
        <mxCell id="SGhGoaNW4V_WZECfipGb-21" value="Обращения сотрудников" style="swimlane;html=1;childLayout=stackLayout;resizeParent=1;resizeParentMax=0;horizontal=1;startSize=20;horizontalStack=0;spacing=1;rotation=0;flipH=1;flipV=0;" parent="1" vertex="1">
          <mxGeometry x="160" y="-60" width="2220" height="1520" as="geometry" />
        </mxCell>
        <mxCell id="SGhGoaNW4V_WZECfipGb-26" value="Сотрудник инициатор" style="swimlane;html=1;startSize=20;horizontal=0;" parent="SGhGoaNW4V_WZECfipGb-21" vertex="1">
          <mxGeometry y="20" width="2220" height="250" as="geometry" />
        </mxCell>
        <mxCell id="SGhGoaNW4V_WZECfipGb-40" style="edgeStyle=orthogonalEdgeStyle;rounded=0;orthogonalLoop=1;jettySize=auto;html=1;exitX=1;exitY=0.5;exitDx=0;exitDy=0;entryX=0;entryY=0.5;entryDx=0;entryDy=0;" parent="SGhGoaNW4V_WZECfipGb-26" source="SGhGoaNW4V_WZECfipGb-27" target="SGhGoaNW4V_WZECfipGb-39" edge="1">
          <mxGeometry relative="1" as="geometry" />
        </mxCell>
        <mxCell id="SGhGoaNW4V_WZECfipGb-27" value="" style="shape=mxgraph.bpmn.shape;html=1;verticalLabelPosition=bottom;labelBackgroundColor=#ffffff;verticalAlign=top;align=center;perimeter=ellipsePerimeter;outlineConnect=0;outline=standard;symbol=general;gradientColor=none;" parent="SGhGoaNW4V_WZECfipGb-26" vertex="1">
          <mxGeometry x="90" y="70" width="50" height="50" as="geometry" />
        </mxCell>
        <mxCell id="SGhGoaNW4V_WZECfipGb-34" value="Потребность в получении сервиса" style="text;html=1;strokeColor=none;fillColor=none;align=center;verticalAlign=middle;whiteSpace=wrap;rounded=0;" parent="SGhGoaNW4V_WZECfipGb-26" vertex="1">
          <mxGeometry x="30" y="40" width="170" height="20" as="geometry" />
        </mxCell>
        <mxCell id="SGhGoaNW4V_WZECfipGb-42" style="edgeStyle=orthogonalEdgeStyle;rounded=0;orthogonalLoop=1;jettySize=auto;html=1;exitX=1;exitY=0.5;exitDx=0;exitDy=0;entryX=0.5;entryY=0;entryDx=0;entryDy=0;" parent="SGhGoaNW4V_WZECfipGb-26" source="SGhGoaNW4V_WZECfipGb-39" target="SGhGoaNW4V_WZECfipGb-41" edge="1">
          <mxGeometry relative="1" as="geometry" />
        </mxCell>
        <mxCell id="SGhGoaNW4V_WZECfipGb-39" value="Выбирает способ обращения" style="shape=ext;rounded=1;html=1;whiteSpace=wrap;gradientColor=none;" parent="SGhGoaNW4V_WZECfipGb-26" vertex="1">
          <mxGeometry x="230" y="55" width="120" height="80" as="geometry" />
        </mxCell>
        <mxCell id="SGhGoaNW4V_WZECfipGb-41" value="" style="shape=mxgraph.bpmn.shape;html=1;verticalLabelPosition=bottom;labelBackgroundColor=#ffffff;verticalAlign=top;align=center;perimeter=rhombusPerimeter;background=gateway;outlineConnect=0;outline=none;symbol=exclusiveGw;gradientColor=none;" parent="SGhGoaNW4V_WZECfipGb-26" vertex="1">
          <mxGeometry x="390" y="140" width="50" height="50" as="geometry" />
        </mxCell>
        <mxCell id="SGhGoaNW4V_WZECfipGb-23" value="Колл-центр" style="swimlane;html=1;startSize=20;horizontal=0;" parent="SGhGoaNW4V_WZECfipGb-21" vertex="1">
          <mxGeometry y="270" width="2220" height="300" as="geometry" />
        </mxCell>
        <mxCell id="SGhGoaNW4V_WZECfipGb-54" style="edgeStyle=orthogonalEdgeStyle;rounded=0;orthogonalLoop=1;jettySize=auto;html=1;exitX=0.5;exitY=1;exitDx=0;exitDy=0;entryX=0.5;entryY=0;entryDx=0;entryDy=0;" parent="SGhGoaNW4V_WZECfipGb-23" source="SGhGoaNW4V_WZECfipGb-48" target="SGhGoaNW4V_WZECfipGb-51" edge="1">
          <mxGeometry relative="1" as="geometry" />
        </mxCell>
        <mxCell id="SGhGoaNW4V_WZECfipGb-56" value="Тип обращения" style="edgeLabel;html=1;align=center;verticalAlign=middle;resizable=0;points=[];" parent="SGhGoaNW4V_WZECfipGb-54" vertex="1" connectable="0">
          <mxGeometry x="-0.2444" y="-2" relative="1" as="geometry">
            <mxPoint as="offset" />
          </mxGeometry>
        </mxCell>
        <mxCell id="SGhGoaNW4V_WZECfipGb-48" value="Прием входящего звонка клиента" style="shape=ext;rounded=1;html=1;whiteSpace=wrap;gradientColor=none;" parent="SGhGoaNW4V_WZECfipGb-23" vertex="1">
          <mxGeometry x="250" y="30" width="100" height="40" as="geometry" />
        </mxCell>
        <mxCell id="SGhGoaNW4V_WZECfipGb-51" value="" style="shape=mxgraph.bpmn.shape;html=1;verticalLabelPosition=bottom;labelBackgroundColor=#ffffff;verticalAlign=top;align=center;perimeter=rhombusPerimeter;background=gateway;outlineConnect=0;outline=none;symbol=exclusiveGw;gradientColor=none;" parent="SGhGoaNW4V_WZECfipGb-23" vertex="1">
          <mxGeometry x="275" y="110" width="50" height="50" as="geometry" />
        </mxCell>
        <mxCell id="SGhGoaNW4V_WZECfipGb-62" value="Обработка иных обращений" style="html=1;whiteSpace=wrap;rounded=1;dropTarget=0;gradientColor=none;" parent="SGhGoaNW4V_WZECfipGb-23" vertex="1">
          <mxGeometry x="80" y="160" width="90" height="70" as="geometry" />
        </mxCell>
        <mxCell id="SGhGoaNW4V_WZECfipGb-63" value="" style="html=1;shape=plus;outlineConnect=0;" parent="SGhGoaNW4V_WZECfipGb-62" vertex="1">
          <mxGeometry x="0.5" y="1" width="14" height="14" relative="1" as="geometry">
            <mxPoint x="-7" y="-14" as="offset" />
          </mxGeometry>
        </mxCell>
        <mxCell id="SGhGoaNW4V_WZECfipGb-59" style="edgeStyle=orthogonalEdgeStyle;rounded=0;orthogonalLoop=1;jettySize=auto;html=1;exitX=1;exitY=0.5;exitDx=0;exitDy=0;entryX=0;entryY=0.5;entryDx=0;entryDy=0;" parent="SGhGoaNW4V_WZECfipGb-23" source="SGhGoaNW4V_WZECfipGb-51" target="SGhGoaNW4V_WZECfipGb-75" edge="1">
          <mxGeometry relative="1" as="geometry">
            <mxPoint x="500" y="175" as="targetPoint" />
          </mxGeometry>
        </mxCell>
        <mxCell id="SGhGoaNW4V_WZECfipGb-61" value="Обращение по &lt;br&gt;техническим вопросам&amp;nbsp;&lt;br&gt;" style="edgeLabel;html=1;align=center;verticalAlign=middle;resizable=0;points=[];" parent="SGhGoaNW4V_WZECfipGb-59" vertex="1" connectable="0">
          <mxGeometry x="-0.1742" y="3" relative="1" as="geometry">
            <mxPoint x="9" y="3" as="offset" />
          </mxGeometry>
        </mxCell>
        <mxCell id="SGhGoaNW4V_WZECfipGb-72" value="База знаний&amp;nbsp;" style="shape=datastore;whiteSpace=wrap;html=1;gradientColor=none;" parent="SGhGoaNW4V_WZECfipGb-23" vertex="1">
          <mxGeometry x="580" y="10" width="60" height="60" as="geometry" />
        </mxCell>
        <mxCell id="SGhGoaNW4V_WZECfipGb-77" style="edgeStyle=orthogonalEdgeStyle;rounded=0;orthogonalLoop=1;jettySize=auto;html=1;exitX=1;exitY=0.5;exitDx=0;exitDy=0;entryX=0;entryY=0.5;entryDx=0;entryDy=0;" parent="SGhGoaNW4V_WZECfipGb-23" source="SGhGoaNW4V_WZECfipGb-75" target="SGhGoaNW4V_WZECfipGb-76" edge="1">
          <mxGeometry relative="1" as="geometry" />
        </mxCell>
        <mxCell id="SGhGoaNW4V_WZECfipGb-75" value="Регистрация обращения в 1C:ITIL" style="shape=ext;rounded=1;html=1;whiteSpace=wrap;gradientColor=none;" parent="SGhGoaNW4V_WZECfipGb-23" vertex="1">
          <mxGeometry x="480" y="102.5" width="90" height="65" as="geometry" />
        </mxCell>
        <mxCell id="SGhGoaNW4V_WZECfipGb-58" style="edgeStyle=orthogonalEdgeStyle;rounded=0;orthogonalLoop=1;jettySize=auto;html=1;entryX=0.5;entryY=0;entryDx=0;entryDy=0;" parent="SGhGoaNW4V_WZECfipGb-23" source="SGhGoaNW4V_WZECfipGb-51" target="SGhGoaNW4V_WZECfipGb-62" edge="1">
          <mxGeometry relative="1" as="geometry">
            <mxPoint x="110" y="185" as="targetPoint" />
          </mxGeometry>
        </mxCell>
        <mxCell id="SGhGoaNW4V_WZECfipGb-60" value="Иное ображение" style="edgeLabel;html=1;align=center;verticalAlign=middle;resizable=0;points=[];" parent="SGhGoaNW4V_WZECfipGb-58" vertex="1" connectable="0">
          <mxGeometry x="0.2593" y="2" relative="1" as="geometry">
            <mxPoint x="35" y="-2" as="offset" />
          </mxGeometry>
        </mxCell>
        <mxCell id="SGhGoaNW4V_WZECfipGb-76" value="" style="shape=mxgraph.bpmn.shape;html=1;verticalLabelPosition=bottom;labelBackgroundColor=#ffffff;verticalAlign=top;align=center;perimeter=rhombusPerimeter;background=gateway;outlineConnect=0;outline=none;symbol=exclusiveGw;gradientColor=none;" parent="SGhGoaNW4V_WZECfipGb-23" vertex="1">
          <mxGeometry x="690" y="110" width="50" height="50" as="geometry" />
        </mxCell>
        <mxCell id="SGhGoaNW4V_WZECfipGb-78" value="Ручное или СофтоФон" style="text;html=1;align=center;verticalAlign=middle;resizable=0;points=[];autosize=1;" parent="SGhGoaNW4V_WZECfipGb-23" vertex="1">
          <mxGeometry x="455" y="75" width="140" height="20" as="geometry" />
        </mxCell>
        <mxCell id="SGhGoaNW4V_WZECfipGb-80" style="edgeStyle=orthogonalEdgeStyle;rounded=0;orthogonalLoop=1;jettySize=auto;html=1;exitX=0.5;exitY=0;exitDx=0;exitDy=0;entryX=0;entryY=0.75;entryDx=0;entryDy=0;" parent="SGhGoaNW4V_WZECfipGb-23" source="SGhGoaNW4V_WZECfipGb-76" target="SGhGoaNW4V_WZECfipGb-84" edge="1">
          <mxGeometry relative="1" as="geometry">
            <mxPoint x="790" y="75" as="targetPoint" />
          </mxGeometry>
        </mxCell>
        <mxCell id="SGhGoaNW4V_WZECfipGb-82" value="Простое обращение&amp;nbsp;&lt;br&gt;решаемое на уровне&lt;br&gt;&amp;nbsp;Колл-Центра" style="edgeLabel;html=1;align=center;verticalAlign=middle;resizable=0;points=[];" parent="SGhGoaNW4V_WZECfipGb-80" vertex="1" connectable="0">
          <mxGeometry x="-0.3385" relative="1" as="geometry">
            <mxPoint as="offset" />
          </mxGeometry>
        </mxCell>
        <mxCell id="SGhGoaNW4V_WZECfipGb-83" value="" style="startArrow=oval;startFill=0;startSize=7;endArrow=block;endFill=0;endSize=10;dashed=1;html=1;entryX=0;entryY=0.338;entryDx=0;entryDy=0;entryPerimeter=0;" parent="SGhGoaNW4V_WZECfipGb-23" edge="1">
          <mxGeometry width="100" relative="1" as="geometry">
            <mxPoint x="640" y="40" as="sourcePoint" />
            <mxPoint x="790" y="42.039999999999964" as="targetPoint" />
          </mxGeometry>
        </mxCell>
        <mxCell id="SGhGoaNW4V_WZECfipGb-84" value="Решение вопроса пользователя" style="html=1;whiteSpace=wrap;rounded=1;dropTarget=0;gradientColor=none;" parent="SGhGoaNW4V_WZECfipGb-23" vertex="1">
          <mxGeometry x="790" y="10" width="120" height="80" as="geometry" />
        </mxCell>
        <mxCell id="SGhGoaNW4V_WZECfipGb-85" value="" style="html=1;shape=plus;outlineConnect=0;" parent="SGhGoaNW4V_WZECfipGb-84" vertex="1">
          <mxGeometry x="0.5" y="1" width="14" height="14" relative="1" as="geometry">
            <mxPoint x="-7" y="-14" as="offset" />
          </mxGeometry>
        </mxCell>
        <mxCell id="SGhGoaNW4V_WZECfipGb-88" value="" style="shape=mxgraph.bpmn.shape;html=1;verticalLabelPosition=bottom;labelBackgroundColor=#ffffff;verticalAlign=top;align=center;perimeter=rhombusPerimeter;background=gateway;outlineConnect=0;outline=none;symbol=exclusiveGw;gradientColor=none;" parent="SGhGoaNW4V_WZECfipGb-23" vertex="1">
          <mxGeometry x="690" y="220" width="50" height="50" as="geometry" />
        </mxCell>
        <mxCell id="SGhGoaNW4V_WZECfipGb-90" value="" style="startArrow=oval;startFill=0;startSize=7;endArrow=block;endFill=0;endSize=10;dashed=1;html=1;" parent="SGhGoaNW4V_WZECfipGb-23" target="SGhGoaNW4V_WZECfipGb-88" edge="1">
          <mxGeometry width="100" relative="1" as="geometry">
            <mxPoint x="610" y="70" as="sourcePoint" />
            <mxPoint x="650" y="217.03999999999996" as="targetPoint" />
          </mxGeometry>
        </mxCell>
        <mxCell id="SGhGoaNW4V_WZECfipGb-91" value="" style="startArrow=oval;startFill=0;startSize=7;endArrow=block;endFill=0;endSize=10;dashed=1;html=1;entryX=0.25;entryY=0.25;entryDx=0;entryDy=0;entryPerimeter=0;" parent="SGhGoaNW4V_WZECfipGb-23" target="SGhGoaNW4V_WZECfipGb-76" edge="1">
          <mxGeometry width="100" relative="1" as="geometry">
            <mxPoint x="610" y="70" as="sourcePoint" />
            <mxPoint x="760" y="142.03999999999996" as="targetPoint" />
          </mxGeometry>
        </mxCell>
        <mxCell id="SGhGoaNW4V_WZECfipGb-96" value="Маршрутизация обращения в 1С:ITIL на УОБПиПИС" style="shape=ext;rounded=1;html=1;whiteSpace=wrap;gradientColor=none;" parent="SGhGoaNW4V_WZECfipGb-23" vertex="1">
          <mxGeometry x="890" y="205" width="120" height="80" as="geometry" />
        </mxCell>
        <mxCell id="SGhGoaNW4V_WZECfipGb-92" style="edgeStyle=orthogonalEdgeStyle;rounded=0;orthogonalLoop=1;jettySize=auto;html=1;exitX=1;exitY=0.5;exitDx=0;exitDy=0;entryX=0;entryY=0.5;entryDx=0;entryDy=0;" parent="SGhGoaNW4V_WZECfipGb-23" source="SGhGoaNW4V_WZECfipGb-88" target="SGhGoaNW4V_WZECfipGb-96" edge="1">
          <mxGeometry relative="1" as="geometry">
            <mxPoint x="530" y="245" as="targetPoint" />
          </mxGeometry>
        </mxCell>
        <mxCell id="SGhGoaNW4V_WZECfipGb-94" value="Обращение связано с &lt;br&gt;работой АС&amp;nbsp;" style="edgeLabel;html=1;align=center;verticalAlign=middle;resizable=0;points=[];" parent="SGhGoaNW4V_WZECfipGb-92" vertex="1" connectable="0">
          <mxGeometry x="0.2875" y="1" relative="1" as="geometry">
            <mxPoint x="-33" y="-14" as="offset" />
          </mxGeometry>
        </mxCell>
        <mxCell id="SGhGoaNW4V_WZECfipGb-97" value="Маршрутизация обращения в 1С:ITIL на Тех. поддержку" style="shape=ext;rounded=1;html=1;whiteSpace=wrap;gradientColor=none;" parent="SGhGoaNW4V_WZECfipGb-23" vertex="1">
          <mxGeometry x="455" y="205" width="120" height="80" as="geometry" />
        </mxCell>
        <mxCell id="SGhGoaNW4V_WZECfipGb-93" style="edgeStyle=orthogonalEdgeStyle;rounded=0;orthogonalLoop=1;jettySize=auto;html=1;exitX=0;exitY=0.5;exitDx=0;exitDy=0;entryX=1;entryY=0.5;entryDx=0;entryDy=0;" parent="SGhGoaNW4V_WZECfipGb-23" source="SGhGoaNW4V_WZECfipGb-88" edge="1" target="SGhGoaNW4V_WZECfipGb-97">
          <mxGeometry relative="1" as="geometry">
            <mxPoint x="900" y="245" as="targetPoint" />
          </mxGeometry>
        </mxCell>
        <mxCell id="SGhGoaNW4V_WZECfipGb-95" value="Обслуживание ПК" style="edgeLabel;html=1;align=center;verticalAlign=middle;resizable=0;points=[];" parent="SGhGoaNW4V_WZECfipGb-93" vertex="1" connectable="0">
          <mxGeometry x="-0.6286" y="-1" relative="1" as="geometry">
            <mxPoint x="-39" y="-14" as="offset" />
          </mxGeometry>
        </mxCell>
        <mxCell id="SGhGoaNW4V_WZECfipGb-25" value="Тех. поддержка" style="swimlane;html=1;startSize=20;horizontal=0;" parent="SGhGoaNW4V_WZECfipGb-21" vertex="1">
          <mxGeometry y="570" width="2220" height="210" as="geometry" />
        </mxCell>
        <mxCell id="SGhGoaNW4V_WZECfipGb-98" value="Тех. поддержка" style="html=1;whiteSpace=wrap;rounded=1;dropTarget=0;gradientColor=none;" parent="SGhGoaNW4V_WZECfipGb-25" vertex="1">
          <mxGeometry x="455" y="40" width="120" height="80" as="geometry" />
        </mxCell>
        <mxCell id="SGhGoaNW4V_WZECfipGb-99" value="" style="html=1;shape=plus;outlineConnect=0;" parent="SGhGoaNW4V_WZECfipGb-98" vertex="1">
          <mxGeometry x="0.5" y="1" width="14" height="14" relative="1" as="geometry">
            <mxPoint x="-7" y="-14" as="offset" />
          </mxGeometry>
        </mxCell>
        <mxCell id="SGhGoaNW4V_WZECfipGb-24" value="УОБПиПИС" style="swimlane;html=1;startSize=20;horizontal=0;" parent="SGhGoaNW4V_WZECfipGb-21" vertex="1">
          <mxGeometry y="780" width="2220" height="310" as="geometry" />
        </mxCell>
        <mxCell id="JOSQkLqyVvJn8Vb5ZnPA-5" value="Маршрутизация обращения" style="html=1;whiteSpace=wrap;rounded=1;dropTarget=0;gradientColor=none;" vertex="1" parent="SGhGoaNW4V_WZECfipGb-24">
          <mxGeometry x="890" y="30" width="120" height="50" as="geometry" />
        </mxCell>
        <mxCell id="JOSQkLqyVvJn8Vb5ZnPA-8" style="edgeStyle=orthogonalEdgeStyle;rounded=0;orthogonalLoop=1;jettySize=auto;html=1;exitX=0.5;exitY=1;exitDx=0;exitDy=0;entryX=0.5;entryY=0;entryDx=0;entryDy=0;" edge="1" parent="JOSQkLqyVvJn8Vb5ZnPA-5" source="JOSQkLqyVvJn8Vb5ZnPA-6">
          <mxGeometry relative="1" as="geometry">
            <mxPoint x="60" y="80" as="targetPoint" />
          </mxGeometry>
        </mxCell>
        <mxCell id="JOSQkLqyVvJn8Vb5ZnPA-6" value="" style="html=1;shape=plus;outlineConnect=0;" vertex="1" parent="JOSQkLqyVvJn8Vb5ZnPA-5">
          <mxGeometry x="0.5" y="1" width="14" height="14" relative="1" as="geometry">
            <mxPoint x="-7" y="-14" as="offset" />
          </mxGeometry>
        </mxCell>
        <mxCell id="JOSQkLqyVvJn8Vb5ZnPA-17" style="edgeStyle=orthogonalEdgeStyle;rounded=0;orthogonalLoop=1;jettySize=auto;html=1;exitX=0;exitY=0.5;exitDx=0;exitDy=0;entryX=1;entryY=0.5;entryDx=0;entryDy=0;" edge="1" parent="SGhGoaNW4V_WZECfipGb-24" source="JOSQkLqyVvJn8Vb5ZnPA-14" target="JOSQkLqyVvJn8Vb5ZnPA-5">
          <mxGeometry relative="1" as="geometry" />
        </mxCell>
        <mxCell id="JOSQkLqyVvJn8Vb5ZnPA-14" value="Регистрация обращения в 1С:ITIL" style="shape=ext;rounded=1;html=1;whiteSpace=wrap;gradientColor=none;" vertex="1" parent="SGhGoaNW4V_WZECfipGb-24">
          <mxGeometry x="1300" y="30" width="120" height="50" as="geometry" />
        </mxCell>
        <mxCell id="JOSQkLqyVvJn8Vb5ZnPA-22" value="Работа с обращением" style="html=1;whiteSpace=wrap;rounded=1;dropTarget=0;gradientColor=none;" vertex="1" parent="SGhGoaNW4V_WZECfipGb-24">
          <mxGeometry x="890" y="110" width="120" height="80" as="geometry" />
        </mxCell>
        <mxCell id="JOSQkLqyVvJn8Vb5ZnPA-23" value="" style="html=1;shape=plus;outlineConnect=0;" vertex="1" parent="JOSQkLqyVvJn8Vb5ZnPA-22">
          <mxGeometry x="0.5" y="1" width="14" height="14" relative="1" as="geometry">
            <mxPoint x="-7" y="-14" as="offset" />
          </mxGeometry>
        </mxCell>
        <mxCell id="JOSQkLqyVvJn8Vb5ZnPA-24" value="" style="shape=mxgraph.bpmn.shape;html=1;verticalLabelPosition=bottom;labelBackgroundColor=#ffffff;verticalAlign=top;align=center;perimeter=rhombusPerimeter;background=gateway;outlineConnect=0;outline=none;symbol=exclusiveGw;gradientColor=none;" vertex="1" parent="SGhGoaNW4V_WZECfipGb-24">
          <mxGeometry x="1080" y="125" width="50" height="50" as="geometry" />
        </mxCell>
        <mxCell id="JOSQkLqyVvJn8Vb5ZnPA-26" style="edgeStyle=orthogonalEdgeStyle;rounded=0;orthogonalLoop=1;jettySize=auto;html=1;entryX=0;entryY=0.5;entryDx=0;entryDy=0;" edge="1" parent="SGhGoaNW4V_WZECfipGb-24" source="JOSQkLqyVvJn8Vb5ZnPA-22" target="JOSQkLqyVvJn8Vb5ZnPA-24">
          <mxGeometry relative="1" as="geometry">
            <mxPoint x="1059.9999999999995" y="150" as="targetPoint" />
          </mxGeometry>
        </mxCell>
        <mxCell id="SGhGoaNW4V_WZECfipGb-22" value="Исполнители" style="swimlane;html=1;startSize=20;horizontal=0;" parent="SGhGoaNW4V_WZECfipGb-21" vertex="1">
          <mxGeometry y="1090" width="2220" height="430" as="geometry" />
        </mxCell>
        <mxCell id="SGhGoaNW4V_WZECfipGb-49" style="edgeStyle=orthogonalEdgeStyle;rounded=0;orthogonalLoop=1;jettySize=auto;html=1;entryX=0.5;entryY=0;entryDx=0;entryDy=0;" parent="SGhGoaNW4V_WZECfipGb-21" source="SGhGoaNW4V_WZECfipGb-41" target="SGhGoaNW4V_WZECfipGb-48" edge="1">
          <mxGeometry relative="1" as="geometry" />
        </mxCell>
        <mxCell id="SGhGoaNW4V_WZECfipGb-50" value="Телефонный звонок&lt;br&gt;на единый номер" style="edgeLabel;html=1;align=center;verticalAlign=middle;resizable=0;points=[];" parent="SGhGoaNW4V_WZECfipGb-49" vertex="1" connectable="0">
          <mxGeometry x="-0.4233" y="-2" relative="1" as="geometry">
            <mxPoint y="7" as="offset" />
          </mxGeometry>
        </mxCell>
        <mxCell id="JOSQkLqyVvJn8Vb5ZnPA-1" style="edgeStyle=orthogonalEdgeStyle;rounded=0;orthogonalLoop=1;jettySize=auto;html=1;exitX=0.5;exitY=1;exitDx=0;exitDy=0;entryX=0.5;entryY=0;entryDx=0;entryDy=0;" edge="1" parent="SGhGoaNW4V_WZECfipGb-21" source="SGhGoaNW4V_WZECfipGb-97" target="SGhGoaNW4V_WZECfipGb-98">
          <mxGeometry relative="1" as="geometry" />
        </mxCell>
        <mxCell id="JOSQkLqyVvJn8Vb5ZnPA-18" style="edgeStyle=orthogonalEdgeStyle;rounded=0;orthogonalLoop=1;jettySize=auto;html=1;exitX=0;exitY=0.5;exitDx=0;exitDy=0;entryX=0.5;entryY=1;entryDx=0;entryDy=0;" edge="1" parent="SGhGoaNW4V_WZECfipGb-21" source="JOSQkLqyVvJn8Vb5ZnPA-5" target="SGhGoaNW4V_WZECfipGb-99">
          <mxGeometry relative="1" as="geometry" />
        </mxCell>
        <mxCell id="SGhGoaNW4V_WZECfipGb-86" style="edgeStyle=orthogonalEdgeStyle;rounded=0;orthogonalLoop=1;jettySize=auto;html=1;exitX=0.5;exitY=1;exitDx=0;exitDy=0;" parent="1" source="SGhGoaNW4V_WZECfipGb-76" edge="1">
          <mxGeometry relative="1" as="geometry">
            <mxPoint x="875" y="430" as="targetPoint" />
          </mxGeometry>
        </mxCell>
        <mxCell id="SGhGoaNW4V_WZECfipGb-87" value="Сложное обращение&amp;nbsp;&lt;br&gt;требующее привлечения&lt;br&gt;служб IT" style="edgeLabel;html=1;align=center;verticalAlign=middle;resizable=0;points=[];" parent="SGhGoaNW4V_WZECfipGb-86" vertex="1" connectable="0">
          <mxGeometry x="-0.8694" y="1" relative="1" as="geometry">
            <mxPoint x="-1" y="14" as="offset" />
          </mxGeometry>
        </mxCell>
        <mxCell id="JOSQkLqyVvJn8Vb5ZnPA-2" style="edgeStyle=orthogonalEdgeStyle;rounded=0;orthogonalLoop=1;jettySize=auto;html=1;exitX=0.5;exitY=1;exitDx=0;exitDy=0;" edge="1" parent="1" source="SGhGoaNW4V_WZECfipGb-96">
          <mxGeometry relative="1" as="geometry">
            <mxPoint x="1110" y="750" as="targetPoint" />
          </mxGeometry>
        </mxCell>
        <mxCell id="JOSQkLqyVvJn8Vb5ZnPA-11" style="edgeStyle=orthogonalEdgeStyle;rounded=0;orthogonalLoop=1;jettySize=auto;html=1;exitX=1;exitY=0.5;exitDx=0;exitDy=0;" edge="1" parent="1" source="SGhGoaNW4V_WZECfipGb-41">
          <mxGeometry relative="1" as="geometry">
            <mxPoint x="1520" y="752" as="targetPoint" />
          </mxGeometry>
        </mxCell>
        <mxCell id="JOSQkLqyVvJn8Vb5ZnPA-12" value="Сообщение на электронную почту" style="edgeLabel;html=1;align=center;verticalAlign=middle;resizable=0;points=[];" vertex="1" connectable="0" parent="JOSQkLqyVvJn8Vb5ZnPA-11">
          <mxGeometry x="-0.832" relative="1" as="geometry">
            <mxPoint x="79" as="offset" />
          </mxGeometry>
        </mxCell>
        <mxCell id="JOSQkLqyVvJn8Vb5ZnPA-25" style="edgeStyle=orthogonalEdgeStyle;rounded=0;orthogonalLoop=1;jettySize=auto;html=1;" edge="1" parent="1" source="JOSQkLqyVvJn8Vb5ZnPA-24">
          <mxGeometry relative="1" as="geometry">
            <mxPoint x="1579.9999999999995" y="975" as="targetPoint" />
          </mxGeometry>
        </mxCell>
      </root>
    </mxGraphModel>
  </diagram>
</mxfile>
